<mxfile host="www.draw.io" modified="2019-11-10T12:32:27.155Z" agent="Mozilla/5.0 (Macintosh; Intel Mac OS X 10_13_6) AppleWebKit/537.36 (KHTML, like Gecko) Chrome/78.0.3904.87 Safari/537.36" etag="2y_G7uh51aJMrax-eZIy" version="12.2.3" type="github" pages="1">
  <diagram id="hVgbpwcDH3CiCPmo3eDQ" name="Page-1">
    <mxGraphModel dx="932" dy="529" grid="1" gridSize="10" guides="1" tooltips="1" connect="1" arrows="1" fold="1" page="1" pageScale="1" pageWidth="827" pageHeight="1169" math="0" shadow="0">
      <root>
        <mxCell id="0"/>
        <mxCell id="1" parent="0"/>
        <mxCell id="bdOCDzeTHGA0YztWF0Z--1" value="" style="rounded=1;whiteSpace=wrap;html=1;fillColor=#f5f5f5;strokeColor=#666666;fontColor=#333333;" vertex="1" parent="1">
          <mxGeometry x="280" y="167" width="270" height="155" as="geometry"/>
        </mxCell>
        <mxCell id="bdOCDzeTHGA0YztWF0Z--2" value="&lt;font style=&quot;font-size: 18px&quot;&gt;Client&lt;/font&gt;" style="ellipse;whiteSpace=wrap;html=1;fillColor=#ffe6cc;strokeColor=#d79b00;" vertex="1" parent="1">
          <mxGeometry x="60" y="160" width="110" height="50" as="geometry"/>
        </mxCell>
        <mxCell id="bdOCDzeTHGA0YztWF0Z--3" value="&lt;font style=&quot;font-size: 18px&quot;&gt;Client&lt;/font&gt;" style="ellipse;whiteSpace=wrap;html=1;fillColor=#ffe6cc;strokeColor=#d79b00;" vertex="1" parent="1">
          <mxGeometry x="60" y="220" width="110" height="50" as="geometry"/>
        </mxCell>
        <mxCell id="bdOCDzeTHGA0YztWF0Z--4" value="&lt;font style=&quot;font-size: 18px&quot;&gt;Client&lt;/font&gt;" style="ellipse;whiteSpace=wrap;html=1;fillColor=#ffe6cc;strokeColor=#d79b00;" vertex="1" parent="1">
          <mxGeometry x="60" y="280" width="110" height="50" as="geometry"/>
        </mxCell>
        <mxCell id="bdOCDzeTHGA0YztWF0Z--6" value="" style="endArrow=classic;html=1;exitX=1;exitY=0.5;exitDx=0;exitDy=0;entryX=0;entryY=0.5;entryDx=0;entryDy=0;" edge="1" parent="1" source="bdOCDzeTHGA0YztWF0Z--2" target="bdOCDzeTHGA0YztWF0Z--1">
          <mxGeometry width="50" height="50" relative="1" as="geometry">
            <mxPoint x="190" y="210" as="sourcePoint"/>
            <mxPoint x="240" y="160" as="targetPoint"/>
          </mxGeometry>
        </mxCell>
        <mxCell id="bdOCDzeTHGA0YztWF0Z--7" value="" style="endArrow=classic;html=1;exitX=1;exitY=0.5;exitDx=0;exitDy=0;entryX=0;entryY=0.5;entryDx=0;entryDy=0;" edge="1" parent="1" source="bdOCDzeTHGA0YztWF0Z--3" target="bdOCDzeTHGA0YztWF0Z--1">
          <mxGeometry width="50" height="50" relative="1" as="geometry">
            <mxPoint x="180" y="195" as="sourcePoint"/>
            <mxPoint x="290" y="255" as="targetPoint"/>
          </mxGeometry>
        </mxCell>
        <mxCell id="bdOCDzeTHGA0YztWF0Z--8" value="" style="endArrow=classic;html=1;exitX=1;exitY=0.5;exitDx=0;exitDy=0;entryX=0;entryY=0.5;entryDx=0;entryDy=0;" edge="1" parent="1" source="bdOCDzeTHGA0YztWF0Z--4" target="bdOCDzeTHGA0YztWF0Z--1">
          <mxGeometry width="50" height="50" relative="1" as="geometry">
            <mxPoint x="180" y="255" as="sourcePoint"/>
            <mxPoint x="290" y="255" as="targetPoint"/>
          </mxGeometry>
        </mxCell>
        <mxCell id="bdOCDzeTHGA0YztWF0Z--9" value="&lt;font style=&quot;font-size: 18px&quot;&gt;Reactor&lt;/font&gt;" style="text;html=1;resizable=0;points=[];autosize=1;align=left;verticalAlign=top;spacingTop=-4;" vertex="1" parent="1">
          <mxGeometry x="297" y="178" width="80" height="20" as="geometry"/>
        </mxCell>
        <mxCell id="bdOCDzeTHGA0YztWF0Z--10" value="&lt;font style=&quot;font-size: 14px&quot;&gt;OP_ACCEPT&lt;/font&gt;" style="rounded=0;whiteSpace=wrap;html=1;fillColor=#dae8fc;strokeColor=#6c8ebf;" vertex="1" parent="1">
          <mxGeometry x="297" y="212" width="93" height="30" as="geometry"/>
        </mxCell>
        <mxCell id="bdOCDzeTHGA0YztWF0Z--11" value="&lt;font style=&quot;font-size: 14px&quot;&gt;OP_READ&lt;/font&gt;" style="rounded=0;whiteSpace=wrap;html=1;fillColor=#d5e8d4;strokeColor=#82b366;" vertex="1" parent="1">
          <mxGeometry x="297" y="247" width="93" height="30" as="geometry"/>
        </mxCell>
        <mxCell id="bdOCDzeTHGA0YztWF0Z--12" value="&lt;font style=&quot;font-size: 14px&quot;&gt;OP_WRITE&lt;/font&gt;" style="rounded=0;whiteSpace=wrap;html=1;fillColor=#e1d5e7;strokeColor=#9673a6;" vertex="1" parent="1">
          <mxGeometry x="297" y="282" width="93" height="30" as="geometry"/>
        </mxCell>
        <mxCell id="bdOCDzeTHGA0YztWF0Z--13" value="&lt;font style=&quot;font-size: 18px&quot;&gt;Acceptor&lt;/font&gt;" style="rounded=1;whiteSpace=wrap;html=1;" vertex="1" parent="1">
          <mxGeometry x="600" y="197" width="90" height="43" as="geometry"/>
        </mxCell>
        <mxCell id="bdOCDzeTHGA0YztWF0Z--14" value="&lt;font style=&quot;font-size: 18px&quot;&gt;Handler&lt;br&gt;&lt;br&gt;&lt;br&gt;&lt;/font&gt;" style="rounded=1;whiteSpace=wrap;html=1;" vertex="1" parent="1">
          <mxGeometry x="600" y="257" width="410" height="80" as="geometry"/>
        </mxCell>
        <mxCell id="bdOCDzeTHGA0YztWF0Z--17" value="" style="endArrow=classic;html=1;exitX=1;exitY=0.5;exitDx=0;exitDy=0;entryX=0;entryY=0.5;entryDx=0;entryDy=0;dashed=1;" edge="1" parent="1" source="bdOCDzeTHGA0YztWF0Z--10" target="bdOCDzeTHGA0YztWF0Z--13">
          <mxGeometry width="50" height="50" relative="1" as="geometry">
            <mxPoint x="450" y="168.5" as="sourcePoint"/>
            <mxPoint x="560" y="228" as="targetPoint"/>
          </mxGeometry>
        </mxCell>
        <mxCell id="bdOCDzeTHGA0YztWF0Z--19" value="" style="endArrow=classic;html=1;exitX=1;exitY=0.5;exitDx=0;exitDy=0;entryX=0;entryY=0.5;entryDx=0;entryDy=0;dashed=1;" edge="1" parent="1" source="bdOCDzeTHGA0YztWF0Z--11" target="bdOCDzeTHGA0YztWF0Z--14">
          <mxGeometry width="50" height="50" relative="1" as="geometry">
            <mxPoint x="400" y="237" as="sourcePoint"/>
            <mxPoint x="610" y="228.5" as="targetPoint"/>
          </mxGeometry>
        </mxCell>
        <mxCell id="bdOCDzeTHGA0YztWF0Z--20" value="" style="endArrow=classic;html=1;exitX=1;exitY=0.5;exitDx=0;exitDy=0;entryX=0;entryY=0.5;entryDx=0;entryDy=0;dashed=1;" edge="1" parent="1" source="bdOCDzeTHGA0YztWF0Z--12" target="bdOCDzeTHGA0YztWF0Z--14">
          <mxGeometry width="50" height="50" relative="1" as="geometry">
            <mxPoint x="400" y="272" as="sourcePoint"/>
            <mxPoint x="610" y="292" as="targetPoint"/>
          </mxGeometry>
        </mxCell>
        <mxCell id="bdOCDzeTHGA0YztWF0Z--21" value="&lt;font style=&quot;font-size: 18px&quot;&gt;dispatch&lt;/font&gt;" style="rounded=1;whiteSpace=wrap;html=1;fillColor=#1ba1e2;strokeColor=#006EAF;fontColor=#ffffff;" vertex="1" parent="1">
          <mxGeometry x="440" y="234" width="90" height="43" as="geometry"/>
        </mxCell>
        <mxCell id="bdOCDzeTHGA0YztWF0Z--22" value="" style="endArrow=classic;html=1;exitX=1;exitY=0.5;exitDx=0;exitDy=0;entryX=0;entryY=0.5;entryDx=0;entryDy=0;" edge="1" parent="1" source="bdOCDzeTHGA0YztWF0Z--10" target="bdOCDzeTHGA0YztWF0Z--21">
          <mxGeometry width="50" height="50" relative="1" as="geometry">
            <mxPoint x="400" y="240" as="sourcePoint"/>
            <mxPoint x="510" y="299.5" as="targetPoint"/>
          </mxGeometry>
        </mxCell>
        <mxCell id="bdOCDzeTHGA0YztWF0Z--23" value="" style="endArrow=classic;html=1;exitX=1;exitY=0.5;exitDx=0;exitDy=0;entryX=0;entryY=0.5;entryDx=0;entryDy=0;" edge="1" parent="1" source="bdOCDzeTHGA0YztWF0Z--11" target="bdOCDzeTHGA0YztWF0Z--21">
          <mxGeometry width="50" height="50" relative="1" as="geometry">
            <mxPoint x="400" y="237" as="sourcePoint"/>
            <mxPoint x="450" y="265.5" as="targetPoint"/>
          </mxGeometry>
        </mxCell>
        <mxCell id="bdOCDzeTHGA0YztWF0Z--24" value="" style="endArrow=classic;html=1;exitX=1;exitY=0.5;exitDx=0;exitDy=0;entryX=0;entryY=0.5;entryDx=0;entryDy=0;" edge="1" parent="1" source="bdOCDzeTHGA0YztWF0Z--12" target="bdOCDzeTHGA0YztWF0Z--21">
          <mxGeometry width="50" height="50" relative="1" as="geometry">
            <mxPoint x="400" y="272" as="sourcePoint"/>
            <mxPoint x="450" y="265.5" as="targetPoint"/>
          </mxGeometry>
        </mxCell>
        <mxCell id="bdOCDzeTHGA0YztWF0Z--25" value="" style="endArrow=classic;html=1;exitX=1;exitY=0.5;exitDx=0;exitDy=0;entryX=0;entryY=0.5;entryDx=0;entryDy=0;" edge="1" parent="1" source="bdOCDzeTHGA0YztWF0Z--21" target="bdOCDzeTHGA0YztWF0Z--13">
          <mxGeometry width="50" height="50" relative="1" as="geometry">
            <mxPoint x="410" y="282" as="sourcePoint"/>
            <mxPoint x="460" y="275.5" as="targetPoint"/>
          </mxGeometry>
        </mxCell>
        <mxCell id="bdOCDzeTHGA0YztWF0Z--26" value="" style="endArrow=classic;html=1;exitX=1;exitY=0.5;exitDx=0;exitDy=0;entryX=0;entryY=0.5;entryDx=0;entryDy=0;" edge="1" parent="1" source="bdOCDzeTHGA0YztWF0Z--21" target="bdOCDzeTHGA0YztWF0Z--14">
          <mxGeometry width="50" height="50" relative="1" as="geometry">
            <mxPoint x="540" y="265.5" as="sourcePoint"/>
            <mxPoint x="610" y="228.5" as="targetPoint"/>
          </mxGeometry>
        </mxCell>
        <mxCell id="bdOCDzeTHGA0YztWF0Z--28" value="&lt;font style=&quot;font-size: 18px&quot;&gt;read&lt;/font&gt;" style="rounded=0;whiteSpace=wrap;html=1;fillColor=#dae8fc;strokeColor=#6c8ebf;" vertex="1" parent="1">
          <mxGeometry x="610" y="296" width="70" height="30" as="geometry"/>
        </mxCell>
        <mxCell id="bdOCDzeTHGA0YztWF0Z--29" value="&lt;font style=&quot;font-size: 18px&quot;&gt;decode&lt;/font&gt;" style="rounded=0;whiteSpace=wrap;html=1;fillColor=#dae8fc;strokeColor=#6c8ebf;" vertex="1" parent="1">
          <mxGeometry x="690" y="295.5" width="70" height="30" as="geometry"/>
        </mxCell>
        <mxCell id="bdOCDzeTHGA0YztWF0Z--30" value="&lt;font style=&quot;font-size: 18px&quot;&gt;process&lt;/font&gt;" style="rounded=0;whiteSpace=wrap;html=1;fillColor=#dae8fc;strokeColor=#6c8ebf;" vertex="1" parent="1">
          <mxGeometry x="770" y="295.5" width="70" height="30" as="geometry"/>
        </mxCell>
        <mxCell id="bdOCDzeTHGA0YztWF0Z--31" value="&lt;font style=&quot;font-size: 18px&quot;&gt;process&lt;/font&gt;" style="rounded=0;whiteSpace=wrap;html=1;fillColor=#dae8fc;strokeColor=#6c8ebf;" vertex="1" parent="1">
          <mxGeometry x="850" y="296" width="70" height="30" as="geometry"/>
        </mxCell>
        <mxCell id="bdOCDzeTHGA0YztWF0Z--32" value="&lt;font style=&quot;font-size: 18px&quot;&gt;send&lt;/font&gt;" style="rounded=0;whiteSpace=wrap;html=1;fillColor=#dae8fc;strokeColor=#6c8ebf;" vertex="1" parent="1">
          <mxGeometry x="930" y="295.5" width="70" height="30" as="geometry"/>
        </mxCell>
      </root>
    </mxGraphModel>
  </diagram>
</mxfile>
